<svg width="35" height="35" viewBox="0 0 35 35" fill="none" xmlns="http://www.w3.org/2000/svg">
<path d="M26.2489 0.00728234L21.7101 0C16.611 0 13.3158 3.38082 13.3158 8.61355V12.585H8.7523C8.35797 12.585 8.03864 12.9047 8.03864 13.299V19.0531C8.03864 19.4475 8.35833 19.7668 8.7523 19.7668H13.3158V34.2863C13.3158 34.6807 13.6351 35 14.0295 35H19.9835C20.3778 35 20.6972 34.6803 20.6972 34.2863V19.7668H26.0329C26.4273 19.7668 26.7466 19.4475 26.7466 19.0531L26.7488 13.299C26.7488 13.1097 26.6734 12.9283 26.5398 12.7943C26.4062 12.6603 26.2241 12.585 26.0348 12.585H20.6972V9.21835C20.6972 7.60021 21.0828 6.77876 23.1906 6.77876L26.2481 6.77767C26.6421 6.77767 26.9614 6.45798 26.9614 6.064V0.720951C26.9614 0.327341 26.6425 0.00801057 26.2489 0.00728234Z" fill="white"/>
</svg>
