<svg width="50" height="50" viewBox="0 0 50 50" fill="none" xmlns="http://www.w3.org/2000/svg">
<path fill-rule="evenodd" clip-rule="evenodd" d="M0 25.144C0 11.3369 11.1929 0.144043 25 0.144043C38.8071 0.144043 50 11.3369 50 25.144C50 38.9512 38.8071 50.144 25 50.144C11.1929 50.144 0 38.9512 0 25.144Z" fill="#AA4D54"/>
<path d="M31.7572 12.6492L28.5153 12.644C24.8731 12.644 22.5194 15.0589 22.5194 18.7966V21.6333H19.2598C18.9781 21.6333 18.75 21.8617 18.75 22.1433V26.2534C18.75 26.5351 18.9784 26.7632 19.2598 26.7632H22.5194V37.1343C22.5194 37.416 22.7474 37.644 23.0291 37.644H27.2819C27.5636 37.644 27.7917 37.4157 27.7917 37.1343V26.7632H31.6029C31.8846 26.7632 32.1127 26.5351 32.1127 26.2534L32.1142 22.1433C32.1142 22.0081 32.0604 21.8786 31.965 21.7829C31.8695 21.6871 31.7395 21.6333 31.6042 21.6333H27.7917V19.2286C27.7917 18.0728 28.0671 17.486 29.5727 17.486L31.7566 17.4852C32.038 17.4852 32.2661 17.2569 32.2661 16.9755V13.159C32.2661 12.8779 32.0383 12.6498 31.7572 12.6492Z" fill="white"/>
</svg>
