<svg width="50" height="51" viewBox="0 0 50 51" fill="none" xmlns="http://www.w3.org/2000/svg">
<path opacity="0.1" fill-rule="evenodd" clip-rule="evenodd" d="M1 25.9326C1 12.1255 12.1929 0.932617 26 0.932617C39.8071 0.932617 51 12.1255 51 25.9326C51 39.7397 39.8071 50.9326 26 50.9326C12.1929 50.9326 1 39.7397 1 25.9326Z" fill="white"/>
<path d="M31.7572 13.4378L28.5153 13.4326C24.8731 13.4326 22.5194 15.8475 22.5194 19.5852V22.4219H19.2598C18.9781 22.4219 18.75 22.6502 18.75 22.9319V27.042C18.75 27.3237 18.9784 27.5518 19.2598 27.5518H22.5194V37.9229C22.5194 38.2045 22.7474 38.4326 23.0291 38.4326H27.2819C27.5636 38.4326 27.7917 38.2043 27.7917 37.9229V27.5518H31.6029C31.8846 27.5518 32.1127 27.3237 32.1127 27.042L32.1142 22.9319C32.1142 22.7967 32.0604 22.6671 31.965 22.5714C31.8695 22.4757 31.7395 22.4219 31.6042 22.4219H27.7917V20.0171C27.7917 18.8613 28.0671 18.2746 29.5727 18.2746L31.7566 18.2738C32.038 18.2738 32.2661 18.0455 32.2661 17.764V13.9476C32.2661 13.6664 32.0383 13.4383 31.7572 13.4378Z" fill="white"/>
</svg>
