<svg width="35" height="35" viewBox="0 0 35 35" fill="none" xmlns="http://www.w3.org/2000/svg">
<g clip-path="url(#clip0)">
<path d="M17.5058 8.51375C12.5431 8.51375 8.52539 12.5358 8.52539 17.4942C8.52539 22.4569 12.5475 26.4746 17.5058 26.4746C22.4685 26.4746 26.4862 22.4525 26.4862 17.4942C26.4862 12.5315 22.4641 8.51375 17.5058 8.51375ZM17.5058 23.3231C14.2843 23.3231 11.6768 20.7142 11.6768 17.4942C11.6768 14.2742 14.2858 11.6652 17.5058 11.6652C20.7258 11.6652 23.3348 14.2742 23.3348 17.4942C23.3362 20.7142 20.7273 23.3231 17.5058 23.3231Z" fill="white"/>
<path d="M24.7154 0.111831C21.4954 -0.0383774 13.5198 -0.0310857 10.2969 0.111831C7.46481 0.244539 4.96668 0.928498 2.95272 2.94246C-0.413109 6.30829 0.017099 10.8437 0.017099 17.4952C0.017099 24.3027 -0.362068 28.7331 2.95272 32.0479C6.33168 35.4254 10.9327 34.9835 17.5054 34.9835C24.2488 34.9835 26.5763 34.9879 28.9606 34.0648C32.2025 32.8062 34.6496 29.9085 34.8888 24.7037C35.0404 21.4823 35.0317 13.5081 34.8888 10.2852C34.6 4.14121 31.3027 0.415164 24.7154 0.111831ZM29.8123 29.821C27.6058 32.0275 24.5448 31.8306 17.4631 31.8306C10.1715 31.8306 7.24751 31.9385 5.11397 29.7991C2.65668 27.3535 3.10147 23.4262 3.10147 17.4718C3.10147 9.41454 2.2746 3.61183 10.3611 3.19767C12.219 3.13204 12.7658 3.11017 17.4427 3.11017L17.5083 3.15392C25.2798 3.15392 31.3771 2.34016 31.7431 10.4252C31.8263 12.27 31.8452 12.8241 31.8452 17.4937C31.8438 24.7008 31.9808 27.6423 29.8123 29.821Z" fill="white"/>
<path d="M26.8421 10.2579C28.0011 10.2579 28.9406 9.31837 28.9406 8.15938C28.9406 7.00039 28.0011 6.06084 26.8421 6.06084C25.6831 6.06084 24.7435 7.00039 24.7435 8.15938C24.7435 9.31837 25.6831 10.2579 26.8421 10.2579Z" fill="white"/>
</g>
<defs>
<clipPath id="clip0">
<rect width="35" height="35" fill="white"/>
</clipPath>
</defs>
</svg>
