<svg width="50" height="51" viewBox="0 0 50 51" fill="none" xmlns="http://www.w3.org/2000/svg">
<path opacity="0.1" fill-rule="evenodd" clip-rule="evenodd" d="M0 25.7886C0 11.9815 11.1929 0.788574 25 0.788574C38.8071 0.788574 50 11.9815 50 25.7886C50 39.5957 38.8071 50.7886 25 50.7886C11.1929 50.7886 0 39.5957 0 25.7886Z" fill="white"/>
<path fill-rule="evenodd" clip-rule="evenodd" d="M25.0013 12.4556C21.3801 12.4556 20.9257 12.4714 19.5034 12.5361C18.084 12.6011 17.1151 12.8258 16.2673 13.1556C15.3903 13.4961 14.6464 13.9517 13.9053 14.6931C13.1636 15.4342 12.7081 16.1781 12.3664 17.0548C12.0359 17.9028 11.8109 18.872 11.747 20.2909C11.6834 21.7132 11.6667 22.1679 11.6667 25.789C11.6667 29.4102 11.6828 29.8632 11.7472 31.2855C11.8125 32.7049 12.0372 33.6738 12.3667 34.5216C12.7075 35.3986 13.1631 36.1425 13.9045 36.8836C14.6453 37.6253 15.3892 38.0819 16.2656 38.4225C17.114 38.7522 18.0831 38.9769 19.5023 39.0419C20.9246 39.1067 21.3787 39.1225 24.9996 39.1225C28.621 39.1225 29.0741 39.1067 30.4963 39.0419C31.9158 38.9769 32.8858 38.7522 33.7341 38.4225C34.6108 38.0819 35.3536 37.6253 36.0944 36.8836C36.8361 36.1425 37.2917 35.3986 37.6333 34.5219C37.9611 33.6738 38.1861 32.7047 38.2528 31.2858C38.3167 29.8635 38.3334 29.4102 38.3334 25.789C38.3334 22.1679 38.3167 21.7134 38.2528 20.2912C38.1861 18.8717 37.9611 17.9028 37.6333 17.0551C37.2917 16.1781 36.8361 15.4342 36.0944 14.6931C35.3528 13.9514 34.6111 13.4959 33.7333 13.1556C32.8833 12.8258 31.9138 12.6011 30.4944 12.5361C29.0721 12.4714 28.6194 12.4556 24.9971 12.4556H25.0013ZM23.8051 14.8583C24.1601 14.8578 24.5562 14.8583 25.0012 14.8583C28.5613 14.8583 28.9832 14.8711 30.389 14.935C31.6891 14.9944 32.3946 15.2117 32.8646 15.3942C33.4869 15.6358 33.9305 15.9247 34.3969 16.3914C34.8635 16.8581 35.1524 17.3025 35.3947 17.9248C35.5772 18.3942 35.7947 19.0998 35.8538 20.3998C35.9177 21.8053 35.9316 22.2276 35.9316 25.7859C35.9316 29.3443 35.9177 29.7665 35.8538 31.1721C35.7944 32.4721 35.5772 33.1777 35.3947 33.6471C35.153 34.2694 34.8635 34.7124 34.3969 35.1788C33.9302 35.6455 33.4871 35.9344 32.8646 36.176C32.3952 36.3594 31.6891 36.5761 30.389 36.6355C28.9835 36.6994 28.5613 36.7133 25.0012 36.7133C21.4409 36.7133 21.0189 36.6994 19.6134 36.6355C18.3134 36.5755 17.6078 36.3583 17.1375 36.1758C16.5153 35.9341 16.0708 35.6452 15.6042 35.1785C15.1375 34.7119 14.8486 34.2685 14.6064 33.646C14.4239 33.1766 14.2064 32.471 14.1472 31.171C14.0833 29.7654 14.0705 29.3432 14.0705 25.7826C14.0705 22.222 14.0833 21.802 14.1472 20.3964C14.2067 19.0964 14.4239 18.3909 14.6064 17.9209C14.8481 17.2986 15.1375 16.8542 15.6042 16.3875C16.0708 15.9208 16.5153 15.632 17.1375 15.3897C17.6075 15.2064 18.3134 14.9897 19.6134 14.93C20.8434 14.8744 21.3201 14.8578 23.8051 14.855V14.8583ZM32.1185 17.0722C31.2352 17.0722 30.5185 17.7881 30.5185 18.6717C30.5185 19.5551 31.2352 20.2717 32.1185 20.2717C33.0019 20.2717 33.7185 19.5551 33.7185 18.6717C33.7185 17.7884 33.0019 17.0722 32.1185 17.0722ZM25.0013 18.9417C21.2199 18.9417 18.154 22.0076 18.154 25.789C18.154 29.5704 21.2199 32.6349 25.0013 32.6349C28.7827 32.6349 31.8475 29.5704 31.8475 25.789C31.8475 22.0076 28.7827 18.9417 25.0013 18.9417ZM25.0012 21.3445C27.4557 21.3445 29.4457 23.3343 29.4457 25.789C29.4457 28.2435 27.4557 30.2335 25.0012 30.2335C22.5465 30.2335 20.5568 28.2435 20.5568 25.789C20.5568 23.3343 22.5465 21.3445 25.0012 21.3445Z" fill="white"/>
</svg>
