<svg width="230" height="237" viewBox="0 0 230 237" fill="none" xmlns="http://www.w3.org/2000/svg">
<path d="M118.92 236.88C97.032 236.88 76.968 231.696 58.728 221.328C40.68 210.96 26.472 196.752 16.104 178.704C5.736 160.656 0.552 140.688 0.552 118.8C0.552 96.912 5.736 76.944 16.104 58.896C26.472 40.848 40.68 26.64 58.728 16.272C76.968 5.90398 97.032 0.719982 118.92 0.719982C141.384 0.719982 160.872 4.84799 177.384 13.104C194.088 21.36 206.856 33.072 215.688 48.24C224.712 63.216 229.224 80.592 229.224 100.368C229.224 115.728 226.344 129.552 220.584 141.84C214.824 154.128 206.856 163.728 196.68 170.64C186.696 177.552 175.56 181.008 163.272 181.008C155.784 181.008 149.064 179.664 143.112 176.976C137.16 174.288 132.744 170.064 129.864 164.304C125.256 169.104 119.592 173.04 112.872 176.112C106.152 179.184 99.336 180.72 92.424 180.72C76.872 180.72 65.064 176.016 57 166.608C48.936 157.008 44.904 144.912 44.904 130.32C44.904 114.96 48.456 101.136 55.56 88.848C62.856 76.368 72.168 66.672 83.496 59.76C95.016 52.656 106.824 49.104 118.92 49.104C126.792 49.104 133.8 50.928 139.944 54.576C146.28 58.032 150.984 62.544 154.056 68.112L158.664 54H182.28L154.92 149.904C153.768 154.128 153.192 157.68 153.192 160.56C153.192 164.592 154.44 167.568 156.936 169.488C159.432 171.216 163.464 172.08 169.032 172.08C178.248 172.08 186.792 168.816 194.664 162.288C202.728 155.568 209.064 146.736 213.672 135.792C218.28 124.656 220.584 112.848 220.584 100.368C220.584 81.744 216.36 65.52 207.912 51.696C199.656 37.872 187.848 27.216 172.488 19.728C157.128 12.24 139.272 8.49599 118.92 8.49599C98.568 8.49599 79.944 13.392 63.048 23.184C46.344 32.784 33.096 46.032 23.304 62.928C13.704 79.824 8.904 98.448 8.904 118.8C8.904 139.152 13.704 157.68 23.304 174.384C33.096 191.088 46.344 204.24 63.048 213.84C79.944 223.44 98.568 228.24 118.92 228.24C133.32 228.24 145.608 226.8 155.784 223.92C166.152 221.04 177 216.432 188.328 210.096L192.36 217.584C180.264 224.304 168.648 229.2 157.512 232.272C146.376 235.344 133.512 236.88 118.92 236.88ZM96.744 170.352C109.416 170.352 119.976 164.592 128.424 153.072L150.888 77.904C144.744 64.656 134.952 58.032 121.512 58.032C112.296 58.032 103.848 62.16 96.168 70.416C88.68 78.48 82.824 88.848 78.6 101.52C74.376 114.192 72.264 127.056 72.264 140.112C72.264 149.136 74.28 156.432 78.312 162C82.344 167.568 88.488 170.352 96.744 170.352Z" fill="black" fill-opacity="0.03"/>
</svg>
