<svg width="50" height="50" viewBox="0 0 50 50" fill="none" xmlns="http://www.w3.org/2000/svg">
<path fill-rule="evenodd" clip-rule="evenodd" d="M0 25C0 11.1929 11.1929 0 25 0C38.8071 0 50 11.1929 50 25C50 38.8071 38.8071 50 25 50C11.1929 50 0 38.8071 0 25Z" fill="#AA4D54"/>
<path fill-rule="evenodd" clip-rule="evenodd" d="M25.0013 11.6667C21.3801 11.6667 20.9257 11.6826 19.5034 11.7473C18.084 11.8123 17.1151 12.037 16.2673 12.3668C15.3903 12.7073 14.6464 13.1629 13.9053 13.9043C13.1636 14.6454 12.7081 15.3893 12.3664 16.266C12.0358 17.114 11.8108 18.0832 11.747 19.5021C11.6833 20.9243 11.6667 21.3791 11.6667 25.0002C11.6667 28.6214 11.6828 29.0744 11.7472 30.4967C11.8125 31.9161 12.0372 32.885 12.3667 33.7328C12.7075 34.6098 13.1631 35.3537 13.9045 36.0948C14.6453 36.8364 15.3892 37.2931 16.2656 37.6337C17.114 37.9634 18.0831 38.1881 19.5023 38.2531C20.9245 38.3179 21.3787 38.3337 24.9996 38.3337C28.621 38.3337 29.0741 38.3179 30.4963 38.2531C31.9158 38.1881 32.8858 37.9634 33.7341 37.6337C34.6108 37.2931 35.3536 36.8364 36.0944 36.0948C36.8361 35.3537 37.2917 34.6098 37.6333 33.7331C37.9611 32.885 38.1861 31.9158 38.2528 30.4969C38.3167 29.0747 38.3333 28.6214 38.3333 25.0002C38.3333 21.3791 38.3167 20.9246 38.2528 19.5024C38.1861 18.0829 37.9611 17.114 37.6333 16.2662C37.2917 15.3893 36.8361 14.6454 36.0944 13.9043C35.3528 13.1626 34.6111 12.707 33.7333 12.3668C32.8833 12.037 31.9138 11.8123 30.4944 11.7473C29.0721 11.6826 28.6194 11.6667 24.9971 11.6667H25.0013ZM23.8051 14.0695C24.1601 14.069 24.5562 14.0695 25.0012 14.0695C28.5612 14.0695 28.9832 14.0823 30.389 14.1462C31.689 14.2056 32.3946 14.4228 32.8646 14.6054C33.4868 14.847 33.9305 15.1359 34.3969 15.6026C34.8635 16.0693 35.1524 16.5137 35.3946 17.1359C35.5771 17.6054 35.7946 18.3109 35.8538 19.611C35.9177 21.0165 35.9316 21.4388 35.9316 24.9971C35.9316 28.5555 35.9177 28.9777 35.8538 30.3833C35.7944 31.6833 35.5771 32.3889 35.3946 32.8583C35.153 33.4805 34.8635 33.9236 34.3969 34.39C33.9302 34.8567 33.4871 35.1456 32.8646 35.3872C32.3952 35.5706 31.689 35.7872 30.389 35.8467C28.9835 35.9106 28.5612 35.9245 25.0012 35.9245C21.4409 35.9245 21.0189 35.9106 19.6134 35.8467C18.3134 35.7867 17.6078 35.5695 17.1375 35.387C16.5153 35.1453 16.0708 34.8564 15.6042 34.3897C15.1375 33.923 14.8486 33.4797 14.6064 32.8572C14.4239 32.3878 14.2064 31.6822 14.1472 30.3822C14.0833 28.9766 14.0705 28.5544 14.0705 24.9938C14.0705 21.4332 14.0833 21.0132 14.1472 19.6076C14.2066 18.3076 14.4239 17.602 14.6064 17.132C14.848 16.5098 15.1375 16.0654 15.6042 15.5987C16.0708 15.132 16.5153 14.8431 17.1375 14.6009C17.6075 14.4176 18.3134 14.2009 19.6134 14.1412C20.8434 14.0856 21.32 14.069 23.8051 14.0662V14.0695ZM32.1185 16.2834C31.2352 16.2834 30.5185 16.9993 30.5185 17.8829C30.5185 18.7662 31.2352 19.4829 32.1185 19.4829C33.0018 19.4829 33.7185 18.7662 33.7185 17.8829C33.7185 16.9995 33.0018 16.2834 32.1185 16.2834ZM25.0013 18.1529C21.2198 18.1529 18.154 21.2188 18.154 25.0002C18.154 28.7816 21.2198 31.8461 25.0013 31.8461C28.7827 31.8461 31.8475 28.7816 31.8475 25.0002C31.8475 21.2188 28.7827 18.1529 25.0013 18.1529ZM25.0012 20.5557C27.4557 20.5557 29.4457 22.5454 29.4457 25.0002C29.4457 27.4546 27.4557 29.4447 25.0012 29.4447C22.5465 29.4447 20.5567 27.4546 20.5567 25.0002C20.5567 22.5454 22.5465 20.5557 25.0012 20.5557Z" fill="white"/>
</svg>
